<?xml version="1.0" encoding="UTF-8"?>
<svg version="1.1" xmlns="http://www.w3.org/2000/svg" width="265" height="286">
<path d="M0 0 C16.84148406 15.99940985 28.65159059 38.78859029 30.765625 62.04296875 C30.90226563 63.3371875 31.03890625 64.63140625 31.1796875 65.96484375 C31.13187624 70.22809834 29.52062727 72.19623374 26.60131836 75.16430664 C26.01616455 75.72239014 25.43101074 76.28047363 24.828125 76.85546875 C23.61979701 78.07686151 22.41407988 79.30084253 21.2109375 80.52734375 C20.61829102 81.12353516 20.02564453 81.71972656 19.41503906 82.33398438 C17.18920968 84.64020191 15.19287049 87.09442463 13.203125 89.60546875 C9.88309664 93.75398126 6.39506003 97.66816347 2.765625 101.54296875 C-0.94147257 105.50194838 -4.51017805 109.50901476 -7.921875 113.73046875 C-8.65792969 114.61347656 -9.39398438 115.49648437 -10.15234375 116.40625 C-12.27238348 118.98479733 -12.27238348 118.98479733 -13.91015625 121.7734375 C-19.06237265 129.2424964 -25.48471356 130.68617622 -33.984375 132.48046875 C-35.09876953 132.72265137 -36.21316406 132.96483398 -37.36132812 133.21435547 C-40.3997392 133.75456843 -43.15005316 134.16792243 -46.234375 134.04296875 C-49.1796875 131.640625 -49.1796875 131.640625 -51.234375 129.04296875 C-53.80219254 128.54296652 -53.80219254 128.54296652 -56.359375 129.04296875 C-57.20757812 129.14609375 -58.05578125 129.24921875 -58.9296875 129.35546875 C-61.51718389 130.12733208 -62.58378278 130.93358572 -64.234375 133.04296875 C-64.37875 133.70296875 -64.523125 134.36296875 -64.671875 135.04296875 C-65.43829105 137.7680036 -66.91338768 138.54555758 -69.234375 140.04296875 C-68.904375 142.02296875 -68.574375 144.00296875 -68.234375 146.04296875 C-66.81125 146.38328125 -66.81125 146.38328125 -65.359375 146.73046875 C-64.328125 147.16359375 -63.296875 147.59671875 -62.234375 148.04296875 C-61.904375 148.88859375 -61.574375 149.73421875 -61.234375 150.60546875 C-60.904375 151.40984375 -60.574375 152.21421875 -60.234375 153.04296875 C-54.91766228 155.06838312 -51.18386016 153.17636753 -46.234375 151.04296875 C-45.904375 148.73296875 -45.574375 146.42296875 -45.234375 144.04296875 C-44.43741211 143.90197754 -43.64044922 143.76098633 -42.81933594 143.61572266 C-39.20650984 142.97286916 -35.59545966 142.32053024 -31.984375 141.66796875 C-30.73011719 141.44625 -29.47585937 141.22453125 -28.18359375 140.99609375 C-26.97832031 140.77695313 -25.77304688 140.5578125 -24.53125 140.33203125 C-22.86594238 140.03353271 -22.86594238 140.03353271 -21.16699219 139.72900391 C-15.77395152 138.46739516 -13.54810558 136.52235959 -10.171875 132.16796875 C-6.83358051 127.96906303 -3.39507224 123.96245154 0.265625 120.04296875 C3.74050927 116.31039644 7.06637395 112.51918077 10.265625 108.54296875 C16.33833821 101.0040509 22.87181347 93.84036333 29.765625 87.04296875 C27.64084481 113.60272118 12.8624653 136.30799401 -6.9453125 153.24609375 C-29.75931025 171.15469267 -57.52953888 177.08811234 -85.984375 174.48046875 C-112.70352622 171.12521042 -135.59448523 155.63483234 -152.234375 135.04296875 C-167.7989626 113.20931115 -175.54360096 85.63448887 -171.546875 58.97265625 C-168.13285513 39.19586158 -160.4932852 20.92229915 -146.46484375 6.36328125 C-144.10559895 3.9984299 -144.10559895 3.9984299 -141.859375 0.91796875 C-127.36591434 -14.95582149 -103.08792307 -26.22386215 -81.64453125 -27.8671875 C-50.02796103 -29.04576305 -23.88688171 -20.92190164 0 0 Z " fill="#F8496C" transform="translate(214.234375,69.95703125)"/>
<path d="M0 0 C10.85671505 6.80444194 18.99234622 16.48405015 22.54199219 28.89501953 C25.08276162 40.57226583 23.55754169 53.24974194 17.5390625 63.484375 C16.09636062 65.7253231 14.60528398 67.87299873 13 70 C12.38382812 70.83660156 11.76765625 71.67320312 11.1328125 72.53515625 C7.47162918 76.76630401 2.8212538 79.25429271 -2 82 C-2.73863281 82.44085938 -3.47726563 82.88171875 -4.23828125 83.3359375 C-13.35432792 87.90205679 -25.63183413 87.29398804 -35.421875 85.3046875 C-38.11563399 84.39915835 -40.50290431 83.35206535 -43 82 C-43.77214844 81.5875 -44.54429688 81.175 -45.33984375 80.75 C-55.02718631 74.9210349 -61.67750809 66.32884614 -66 56 C-66.36480469 55.27683594 -66.72960937 54.55367187 -67.10546875 53.80859375 C-70.06883213 44.50440915 -69.27615133 31.2173014 -65.3203125 22.37890625 C-58.53874505 10.16004656 -49.21455659 0.5252677 -35.796875 -4.10546875 C-23.75163067 -6.94328866 -10.88857139 -6.01536461 0 0 Z " fill="#FFFCFD" transform="translate(166,103)"/>
<path d="M0 0 C8.4412364 3.57129232 12.40699409 9.85429279 16 18 C16.66796875 20.84375 16.66796875 20.84375 17 23 C17.66 23 18.32 23 19 23 C19.66 20.36 20.32 17.72 21 15 C26.87494767 18.69282425 29.98306469 24.8674858 31.61328125 31.4921875 C32.8819309 39.71918824 32.58035577 45.63683562 27.8671875 52.6953125 C24.96403088 56.27870665 21.65214423 59.20064072 18 62 C17.01 61.505 17.01 61.505 16 61 C16.495 60.01 16.495 60.01 17 59 C17.98612418 48.53959418 17.46351794 39.80496587 11 31 C9.34457845 29.65273052 7.67998493 28.31651289 6 27 C6 26.34 6 25.68 6 25 C5.34 25 4.68 25 4 25 C4.05220703 26.08667969 4.05220703 26.08667969 4.10546875 27.1953125 C4.26631949 32.93998168 4.23466184 37.01322966 1 42 C0.67 42 0.34 42 0 42 C-0.12375 41.030625 -0.2475 40.06125 -0.375 39.0625 C-0.58125 38.051875 -0.7875 37.04125 -1 36 C-1.66 35.67 -2.32 35.34 -3 35 C-3.10054687 35.70769531 -3.20109375 36.41539062 -3.3046875 37.14453125 C-4.09838508 40.4040421 -5.45719022 42.78240809 -7.125 45.6875 C-10.16853387 51.53543293 -10.54642512 55.6455986 -9 62 C-14.6365035 60.63357491 -17.65624148 56.43823618 -21 52 C-23.36732278 47.88291691 -23.76391928 43.65226843 -23 39 C-20.87476859 32.77961114 -18.06643736 26.81009185 -15 21 C-14.67 21 -14.34 21 -14 21 C-14 23.64 -14 26.28 -14 29 C-5.22789992 21.25991169 -1.1817344 11.42343253 0 0 Z " fill="#F84971" transform="translate(139,112)"/>
<path d="M0 0 C0.66 0.33 1.32 0.66 2 1 C1.25556641 1.61875 1.25556641 1.61875 0.49609375 2.25 C-4.49331974 6.49147485 -8.78525411 11.00089557 -13 16 C-14.30977056 17.50238388 -15.62219751 19.00245681 -16.9375 20.5 C-17.52402344 21.1703125 -18.11054687 21.840625 -18.71484375 22.53125 C-19.35099609 23.25828125 -19.35099609 23.25828125 -20 24 C-20 19.96337642 -18.54368281 19.08798941 -15.8125 16.1875 C-11.9479992 12.03604312 -11.9479992 12.03604312 -8.3125 7.6875 C-5.74901828 4.70831854 -3.0774706 2.43334884 0 0 Z " fill="#FC7D70" transform="translate(81,63)"/>
</svg>
